<?xml version="1.0" encoding="utf-8"?>
<!-- Generator: Adobe Illustrator 27.5.0, SVG Export Plug-In . SVG Version: 6.00 Build 0)  -->
<svg version="1.1" xmlns="http://www.w3.org/2000/svg" xmlns:xlink="http://www.w3.org/1999/xlink" x="0px" y="0px"
	 viewBox="0 0 2500 2500" style="enable-background:new 0 0 2500 2500;" xml:space="preserve">
<g id="Background">
	<rect style="fill:#FFFFFF;" width="2500" height="2500"/>
</g>
<g id="Illustration">
	<g id="Wildfires_1_">
		<ellipse style="fill:#F2E6DC;" cx="1249.568" cy="1249.74" rx="914.507" ry="914.74"/>
		<path style="fill:#D3BBA3;" d="M1310.282,2059.449c-0.282,0-0.565-0.054-0.832-0.163l-66.102-26.926
			c-0.542-0.221-0.974-0.649-1.2-1.188c-0.227-0.54-0.232-1.148-0.011-1.69l12.171-29.875c-8.102-6.367-15.469-13.645-21.936-21.673
			l-29.726,12.517c-1.124,0.476-2.418-0.053-2.89-1.177l-27.7-65.78c-0.227-0.54-0.232-1.148-0.011-1.69
			c0.221-0.542,0.649-0.974,1.188-1.201l29.726-12.518c-1.224-10.233-1.283-20.589-0.176-30.836l-29.877-12.17
			c-0.542-0.221-0.974-0.649-1.2-1.188c-0.227-0.54-0.232-1.148-0.011-1.69l26.927-66.101c0.221-0.542,0.649-0.974,1.188-1.2
			c0.538-0.228,1.147-0.233,1.69-0.011l29.874,12.17c6.369-8.104,13.648-15.471,21.673-21.934l-12.517-29.727
			c-0.473-1.124,0.054-2.418,1.177-2.89l65.782-27.701c1.11-0.47,2.416,0.053,2.89,1.178l12.516,29.726
			c10.238-1.222,20.594-1.284,30.838-0.176l12.169-29.876c0.22-0.542,0.647-0.974,1.188-1.201c0.539-0.229,1.144-0.233,1.688-0.011
			l66.102,26.927c0.543,0.221,0.974,0.649,1.203,1.188c0.226,0.54,0.231,1.148,0.009,1.69l-12.171,29.875
			c8.102,6.366,15.471,13.646,21.936,21.673l29.728-12.518c0.539-0.227,1.145-0.233,1.688-0.011
			c0.543,0.221,0.974,0.649,1.203,1.188l27.7,65.78c0.472,1.124-0.054,2.417-1.179,2.89l-29.726,12.519
			c1.224,10.235,1.282,20.594,0.177,30.836l29.874,12.17c1.129,0.46,1.672,1.748,1.211,2.877l-26.926,66.101
			c-0.22,0.542-0.647,0.974-1.188,1.2c-0.541,0.226-1.147,0.232-1.688,0.011l-29.876-12.171
			c-6.365,8.099-13.645,15.467-21.673,21.935l12.518,29.726c0.472,1.124-0.054,2.417-1.179,2.89l-65.779,27.701
			c-1.112,0.472-2.416-0.051-2.89-1.177l-12.518-29.726c-10.235,1.223-20.587,1.283-30.838,0.176l-12.169,29.875
			c-0.22,0.542-0.647,0.974-1.188,1.2C1310.864,2059.391,1310.573,2059.449,1310.282,2059.449z M1247.057,2029.105l62.014,25.261
			l11.968-29.382c0.375-0.922,1.308-1.48,2.308-1.358c10.985,1.324,22.115,1.261,33.079-0.189c0.97-0.134,1.935,0.414,2.323,1.331
			l12.311,29.234l61.712-25.988l-12.311-29.233c-0.386-0.917-0.11-1.979,0.67-2.593c8.705-6.837,16.527-14.754,23.251-23.531
			c0.606-0.791,1.67-1.074,2.584-0.703l29.383,11.97l25.26-62.014l-29.381-11.968c-0.922-0.376-1.479-1.321-1.36-2.308
			c1.325-10.979,1.263-22.109-0.188-33.08c-0.132-0.986,0.414-1.937,1.332-2.322l29.234-12.312l-25.986-61.712l-29.236,12.311
			c-0.907,0.387-1.979,0.113-2.591-0.67c-6.834-8.703-14.753-16.526-23.533-23.25c-0.789-0.604-1.076-1.664-0.701-2.585
			l11.968-29.382l-62.014-25.262l-11.968,29.383c-0.373,0.919-1.287,1.479-2.308,1.358c-10.975-1.322-22.109-1.26-33.079,0.189
			c-1.004,0.129-1.938-0.417-2.323-1.331l-12.309-29.234l-61.714,25.987l12.311,29.234c0.386,0.917,0.11,1.979-0.672,2.593
			c-8.699,6.831-16.521,14.747-23.249,23.53c-0.607,0.789-1.666,1.076-2.585,0.703l-29.381-11.969l-25.262,62.014l29.383,11.968
			c0.921,0.376,1.477,1.321,1.358,2.308c-1.326,10.983-1.262,22.112,0.189,33.079c0.13,0.986-0.415,1.938-1.331,2.323
			l-29.234,12.311l25.987,61.712l29.233-12.31c0.918-0.388,1.979-0.112,2.593,0.67c6.834,8.703,14.752,16.526,23.532,23.25
			c0.789,0.604,1.075,1.664,0.7,2.585L1247.057,2029.105z M1339.217,1968.363c-29.87,0-58.3-17.596-70.603-46.807
			c-16.369-38.873,1.938-83.817,40.812-100.186c38.864-16.373,83.814,1.938,100.186,40.811c7.929,18.831,8.052,39.623,0.343,58.546
			c-7.707,18.922-22.322,33.711-41.155,41.64C1359.14,1966.435,1349.097,1968.363,1339.217,1968.363z M1339.016,1819.787
			c-9.313,0-18.772,1.815-27.879,5.649c-36.629,15.425-53.88,57.776-38.454,94.406c15.423,36.632,57.781,53.879,94.406,38.458
			c36.629-15.426,53.88-57.775,38.454-94.406C1393.954,1836.37,1367.16,1819.787,1339.016,1819.787z M1367.944,1960.333h0.021
			H1367.944z"/>
		<g>
			<g>
				<path style="fill:#D87355;" d="M2089.764,1198.007c0,0,29.165-27.703,48.734-81.497
					c35.049-96.345,17.752-250.357,17.752-250.357s-10.241,36.361-67.594,60.679c-35.078,14.873-22.759,26.865-28.676,19.454
					C2019.743,895.891,2123,789.841,2123,789.841s-41.154-15.839-81.01-11.424c-32.668,3.618-56.43,21.268-56.43,21.268
					s-12.29-42.382-7.332-70.562c2.136-12.14,23.886-75.43-34.1-127.879c0,0,5.996,40.695-8.827,51.978
					c-13.612,10.361-33.772,17.651-45.756,25.698c-51.348,34.478-62.368,59.145-62.368,59.145s27.432-32.141-55.259-104.973
					c-61.121-53.834-163.143-65.622-163.143-65.622s86.455,32.357,10.748,131.741c0,0-11.533-52.381-57.278-69.056
					c-26.363-9.61-62.815-29.181-61.449-63.921c0,0-98.344,87.621-55.094,200.641c0,0-42.744,9.461-88.351-45.352
					c-38.548-46.33-27.167-84.935-27.167-84.935s-73.259,97.176-42.867,166.802c23.122,52.972,33.171,88.06,13.64,110.822
					c-23.107,26.929-108.317-28.373-127.434-65.429c-3.005-5.826-13.655-24.086-13.655-24.086s-34.286,137.396,41.029,185.937
					c0,0-6.259-4.732-29.261-1.412c-25.595,3.694-51.672-27.949-51.672-27.949s-8.228,179.09,136.447,195.908
					C1401.083,1193.999,2089.764,1198.007,2089.764,1198.007z"/>
				<path style="fill:#EFBC73;" d="M2033.815,1222.588c0,0,43.84-44.219,68.269-114.415
					c11.568-33.239,10.529-131.905,10.529-131.905s-39.85,27.904-87.242,34.533c-90.239,12.622-64.064-66.692-53.747-105.936
					c8.089-30.77-0.091-92.414-53.26-162.781c0,0,1.738,79.413-66.61,77.285c-31.054-0.966-43.251,35.787-51.356,48.572
					c-2.181,3.44-8.686,12.732-32.903-16.268c-25.931-31.052,13.796-67.724-1.571-125.917
					c-6.593-24.968-51.601-67.241-51.601-67.241s53.469,55.868-18.104,102.75c-30.597,20.041-37.237,11.394-44.358,48.55
					c-1.133,5.91-12.063,13.654-20.851-4.988c-7.615-16.152-1.425-35.534,9.562-47.633c0,0-48.791,11.137-45.45,58.722
					c0.86,12.248,7.471,29.492,4.601,26.018c-10-12.103-12.318-16.145-41.876-27.38c-52.391-19.915-10.09-77.443-7.425-93.949
					c0,0-110.439,69.051-61.815,172.411c0,0-33.521,4.308-64.008-41.145c-25.769-38.418-33.799-68.421-33.799-68.421
					s-39.087,51.295-21.462,107.106c13.409,42.462,8.214,55.609-12.391,45.078c-60.852-31.1-49.029,33.232-108.322,26.169
					c-30.096-3.585-57.58-44.235-59.173-47.246c0,0-1.024,32.771,13.655,55.005c28.327,42.903,41.661,80.57,13.314,81.638
					c-46.087,1.737-70.325-29.181-70.325-29.181s35.261,163.82,144.747,186.899
					C1400.328,1231.998,2033.815,1222.588,2033.815,1222.588z"/>
			</g>
			<g>
				<path style="fill:#D3BBA3;" d="M2070.528,1342.056c0,0,42.879,205.195,0.702,287.047
					c-84.457,163.902-251.178,279.885-448.543,290.462c-295.927,15.859-548.686-211.257-564.551-507.277
					c-3.85-71.83,6.602-141.116,28.87-205.091c23.056-66.24,153.401-114.289,153.401-114.289s35.783-145.998,87.221-175.459
					c70.408-40.326,151.06-65.232,237.605-69.87c96.368-5.165,188.158,15.438,268.68,55.795
					c28.343,14.205,63.681,75.556,63.681,75.556s55.007,4.654,72.42,21.758c36.676,36.025,68.253,77.332,93.46,122.781
					C2101.702,1192.396,2070.528,1342.056,2070.528,1342.056z"/>
				<path style="fill:#F7F1EB;" d="M1485.201,1029.75c-14.787,10.149-5.009,33.679-19.778,43.2
					c-25.33,16.327-98.115-24.497-96.02-58.427c2.269-36.725,92.631-71.357,127.68-45.154
					c22.563,16.868,13.157,52.181,34.485,59.838c18.085,6.492,47.984-10.586,53.214-34.102
					c6.906-31.055-33.177-55.503-36.557-57.505c-40.497-23.977-93.263-6.407-112.681,0.059
					c-41.946,13.967-50.64,31.314-71.351,26.338c-21.873-5.255-27.693-28.324-36.55-46.52
					c-111.921,64.104-197.938,167.165-240.6,289.733c20.734,25.986,51.638,31.755,70.14,78.461
					c9.73,24.562,3.404,46.084,21.538,58.656c18.464,12.802,54.338-5.465,69.384,8.928c8.925,8.538,6.057,16.341,13.885,47.8
					c7.554,30.358,11.332,45.537,20.884,54.015c27.541,24.448,90.297,0.799,90.01-9.764c-0.191-6.994-27.876-3.268-38.869-22.005
					c-11.463-19.542,9.41-39.324-1.197-57.394c-11.639-19.825-43.711-7.884-54.542-25.495
					c-11.182-18.179,5.663-59.078,35.186-77.236c43.304-26.634,77.945,17.769,121.357-2.785
					c54.023-25.575,32.912-109.728,97.447-145.028c32.542-17.8,58.953-7.914,62.805-21.41
					C1602.354,1068.424,1514.546,1009.609,1485.201,1029.75z"/>
				<path style="fill:#F7F1EB;" d="M1444.719,1406.947c34.907-16.099,68.409-10.019,81.41-7.66
					c10.224,1.855,34.707,6.57,58.981,24.255c37.868,27.589,28.718,52.861,60.302,71.209c34.139,19.832,69.421,4.594,76.024,21.195
					c3.575,8.989-6.629,13.811-14.223,35.902c-13.477,39.203,4.271,65.866-11.736,77.823c-8.743,6.532-27.523,8.647-27.523,8.646
					c0.001,0,2.997,22.357-2.305,39.869c-3.716,12.273-8.483,12.172-19.295,29.192c-15.146,23.839-10.155,30.898-21.268,46.633
					c-16.618,23.53-34.238,16.893-44.108,32.816c-20.818,33.588,41.302,89.372,25.263,110.684
					c-12.149,16.142-66.309,8.747-91.684-22.603c-17.893-22.108-6.569-37.717-19.592-93.882
					c-10.695-46.134-30.07-86.215-37.126-100.631c-20.212-41.294-34.496-56.213-31.164-83.527
					c2.868-23.508,15.311-27.719,12.648-44.697c-5.072-32.328-52.571-32.266-59.749-61.893
					C1372.383,1460.608,1410.822,1422.579,1444.719,1406.947z"/>
				<path style="fill:#F7F1EB;" d="M2063.455,1123.478c-75.638-13.508-95.329-17.722-127.215-6.915
					c-27.576,9.346-49.24,25.054-92.568,56.47c-41.313,29.955-48.181,42.081-51.105,48.011
					c-16.622,33.7,4.317,66.646,16.249,104.952c10.417,33.444,11.937,72.6,36.568,77.818c11.807,2.501,17.57-4.12,52.702-21.12
					c44.871-21.712,67.306-32.568,76.42-25.526c18.159,14.03-33.166,75.614-8.016,117.417
					c16.827,27.968,51.988,20.654,66.098,53.047c9.616,22.075-3.042,33.899,3.37,56.771c4.928,17.581,18.776,33.272,35.243,44.685
					c42.178-81.852,63.868-175.638,58.583-274.232C2125.281,1270.851,2101.683,1192.407,2063.455,1123.478z"/>
				<g>
					<path style="fill:#363E44;" d="M1625.474,1920.65c-133.037,0-259.674-48.426-359.403-138.037
						c-107.068-96.206-170.277-228.36-177.981-372.117c-7.705-143.757,41.016-281.909,137.188-389.007
						c96.171-107.099,228.283-170.322,371.995-178.024c143.723-7.71,281.824,41.04,388.892,137.246
						c107.068,96.206,170.276,228.36,177.983,372.118c7.703,143.758-41.017,281.91-137.19,389.008
						c-96.171,107.098-228.283,170.321-371.995,178.023C1645.111,1920.387,1635.264,1920.65,1625.474,1920.65z M1626.421,847.096
						c-9.6,0-19.214,0.256-28.911,0.776c-142.535,7.639-273.563,70.344-368.948,176.565
						c-95.384,106.221-143.705,243.243-136.064,385.822c15.776,294.332,268.032,520.942,562.228,505.193
						c142.535-7.639,273.563-70.344,368.947-176.565c95.386-106.221,143.707-243.241,136.065-385.822
						C2144.483,1068.434,1908.079,847.096,1626.421,847.096z"/>
				</g>
				<path style="fill:#F7F1EB;" d="M1970.001,1000.699c-39.88-39.172-85.789-72.093-136.098-97.308
					c-2.494,15.451-1.365,30.412,5.248,42.025c9.235,16.22,26.752,21.744,26.202,37.424c-0.543,15.466-18.261,29.424-33.893,34.996
					c-26.664,9.505-44.893-6.235-53.766,3.192c-13.322,14.153,20.957,56.864,7.245,71.533c-8.978,9.604-27.112-5.026-44.628,5.648
					c-16.586,10.107-26.073,38.909-14.552,57.835c8.956,14.712,28.336,19.728,43.059,18.433c12.35-1.087,28.65-7.249,71.305-61.204
					c39.411-49.851,44.364-68.457,61.811-69.636c29.315-1.981,54.167,47.927,59.592,44.438c5.039-3.24-26.664-39.682-18.837-64.848
					C1945.997,1012.588,1955.927,1005.476,1970.001,1000.699z"/>
			</g>
			<g>
				<g>
					<path style="fill:#8B865C;" d="M1685.686,996.898c6.492-9.638,10.223-21.277,10.048-33.777
						c-0.455-32.623-27.271-58.699-59.893-58.244c-16.141,0.225-30.673,6.91-41.188,17.553
						c-13.575-16.57-34.284-27.036-57.367-26.714c-30.083,0.42-55.647,19.026-66.386,45.207c-0.775-0.019-1.551-0.037-2.333-0.026
						c-25.224,0.352-46.523,16.47-54.681,38.84c-6.477-1.55-13.249-2.333-20.214-2.235c-45.122,0.63-60.928,39.867-63.54,79.048
						c-1.453,21.801,16.325,80.556,57.686,84.06c10.734,33.24,42.15,57.074,78.901,56.561c21.631-0.302,41.167-8.998,55.591-22.927
						c5.816,26.93,29.953,46.935,58.562,46.536c32.032-0.447,57.733-26.312,58.224-58.13c11.061,4.868,23.308,7.518,36.181,7.338
						c48.01-0.67,86.387-40.133,85.717-88.143C1760.385,1038.192,1727.702,1002.513,1685.686,996.898z"/>
					<g>
						<path style="fill:#E2A18D;" d="M1386.659,1039.218c-4.571,0-10.281-0.789-15.365-3.816
							c-10.391-6.187-13.809-19.133-13.949-19.682c-0.146-0.569-0.058-1.172,0.241-1.677c0.302-0.504,0.791-0.869,1.36-1.011
							c0.55-0.139,13.565-3.301,23.952,2.885c10.391,6.187,13.807,19.133,13.947,19.682c0.147,0.569,0.058,1.172-0.241,1.677
							c-0.302,0.504-0.791,0.869-1.36,1.011C1394.963,1038.358,1391.431,1039.218,1386.659,1039.218z M1362.371,1016.888
							c1.373,3.673,4.759,10.897,11.182,14.721c6.451,3.841,14.391,3.371,18.268,2.822c-1.373-3.673-4.759-10.897-11.182-14.721
							C1374.193,1015.871,1366.242,1016.34,1362.371,1016.888z"/>
						<path style="fill:#E2A18D;" d="M1500.867,966.946c-4.492,0-13.074-0.764-20.029-5.896c-9.694-7.15-12.216-19.818-12.32-20.354
							c-0.114-0.604,0.026-1.229,0.392-1.725c0.364-0.495,0.92-0.816,1.532-0.883c0.543-0.062,13.391-1.391,23.085,5.76
							c9.695,7.15,12.214,19.819,12.318,20.354c0.114,0.605-0.026,1.23-0.392,1.725c-0.366,0.495-0.92,0.816-1.532,0.884
							C1503.768,966.828,1502.634,966.946,1500.867,966.946z M1473.529,942.377c1.168,3.735,4.035,10.773,9.929,15.121
							c5.892,4.348,13.464,5.008,17.376,5.023c-1.168-3.735-4.032-10.773-9.927-15.121
							C1485.013,943.052,1477.443,942.392,1473.529,942.377z"/>
						<path style="fill:#E2A18D;" d="M1478.116,1100.814c-0.483,0-0.957-0.16-1.347-0.458c-0.431-0.333-10.608-8.288-12.628-20.163
							c-2.024-11.876,4.951-22.749,5.248-23.206c0.336-0.516,0.873-0.867,1.479-0.971c0.608-0.1,1.229,0.053,1.718,0.427
							c0.431,0.333,10.606,8.288,12.628,20.163c2.022,11.876-4.951,22.749-5.248,23.206c-0.336,0.516-0.873,0.868-1.479,0.971
							C1478.364,1100.803,1478.239,1100.814,1478.116,1100.814z M1471.833,1061.668c-1.75,3.499-4.573,10.559-3.343,17.783
							c1.235,7.254,6.224,12.964,9.031,15.679c1.748-3.499,4.571-10.559,3.343-17.783
							C1479.627,1070.092,1474.639,1064.383,1471.833,1061.668z"/>
						<path style="fill:#E2A18D;" d="M1565.857,1047.781c-0.108,0-0.218-0.007-0.325-0.024c-0.61-0.092-1.153-0.432-1.498-0.941
							c-0.308-0.45-7.5-11.179-5.724-23.093c1.778-11.914,11.789-20.075,12.216-20.417c0.481-0.384,1.099-0.55,1.707-0.462
							c0.61,0.092,1.153,0.432,1.498,0.941c0.308,0.45,7.5,11.179,5.724,23.093c-1.778,11.914-11.789,20.075-12.216,20.417
							C1566.844,1047.612,1566.357,1047.781,1565.857,1047.781z M1571.385,1008.52c-2.752,2.782-7.63,8.609-8.709,15.854
							c-1.082,7.245,1.882,14.242,3.703,17.707c2.752-2.782,7.63-8.609,8.71-15.854
							C1576.17,1018.982,1573.207,1011.985,1571.385,1008.52z"/>
						<path style="fill:#E2A18D;" d="M1740.749,1080.12c-2.481,0-5.087-0.293-7.694-1.045c-11.574-3.34-18.337-14.344-18.62-14.81
							c-0.319-0.527-0.403-1.163-0.233-1.754s0.58-1.084,1.132-1.36c0.487-0.246,12.063-5.957,23.648-2.615
							c11.572,3.341,18.335,14.344,18.617,14.811c0.319,0.527,0.403,1.163,0.233,1.754c-0.17,0.592-0.58,1.084-1.132,1.36
							C1756.323,1076.65,1749.284,1080.12,1740.749,1080.12z M1719.714,1064.096c2.392,3.096,7.524,8.705,14.565,10.736
							c7.035,2.029,14.363,0.021,18.04-1.324c-2.394-3.096-7.524-8.701-14.561-10.732
							C1730.695,1060.735,1723.378,1062.748,1719.714,1064.096z"/>
						<path style="fill:#E2A18D;" d="M1385.434,1166.675c-0.888,0-1.787-0.044-2.696-0.139
							c-11.981-1.26-20.568-10.907-20.928-11.317c-0.405-0.462-0.599-1.073-0.535-1.685c0.063-0.612,0.381-1.169,0.873-1.538
							c0.44-0.327,10.858-7.969,22.824-6.72c11.979,1.26,20.568,10.907,20.928,11.316c0.405,0.463,0.599,1.074,0.535,1.687
							c-0.063,0.612-0.382,1.169-0.873,1.538C1405.157,1160.117,1396.239,1166.675,1385.434,1166.675z M1366.979,1154.129
							c2.897,2.628,8.932,7.25,16.221,8.017c7.339,0.771,14.164-2.495,17.533-4.464c-2.897-2.628-8.934-7.25-16.221-8.017
							C1377.191,1148.892,1370.35,1152.159,1366.979,1154.129z"/>
						<path style="fill:#E2A18D;" d="M1507.71,1168.043c-9.335,0-17.107-4.414-17.497-4.639c-0.532-0.308-0.914-0.824-1.05-1.425
							c-0.136-0.6-0.015-1.231,0.334-1.737c0.31-0.449,7.705-11.039,19.453-13.697c11.746-2.655,22.984,3.721,23.454,3.994
							c0.532,0.308,0.914,0.824,1.05,1.425c0.136,0.6,0.015,1.231-0.334,1.737c-0.31,0.449-7.705,11.039-19.453,13.697
							C1511.65,1167.854,1509.645,1168.043,1507.71,1168.043z M1494.761,1160.713c3.591,1.558,10.794,3.997,17.932,2.378
							c7.145-1.615,12.593-6.911,15.165-9.862c-3.593-1.559-10.792-3.999-17.932-2.378
							C1502.781,1152.467,1497.332,1157.762,1494.761,1160.713z"/>
						<path style="fill:#E2A18D;" d="M1636.669,953.949c-9.145,0-16.747-4.176-17.135-4.393c-0.539-0.301-0.925-0.812-1.069-1.41
							c-0.144-0.598-0.032-1.229,0.308-1.741c0.302-0.454,7.546-11.148,19.257-13.973c11.714-2.825,23.031,3.392,23.508,3.658
							c0.539,0.3,0.927,0.811,1.069,1.41c0.144,0.598,0.032,1.23-0.308,1.741c-0.302,0.454-7.548,11.148-19.257,13.973
							C1640.882,953.734,1638.736,953.949,1636.669,953.949z M1624.043,946.802c3.61,1.507,10.837,3.839,17.964,2.121
							c7.121-1.718,12.494-7.09,15.022-10.078c-3.612-1.507-10.839-3.84-17.964-2.121
							C1631.942,938.441,1626.571,943.814,1624.043,946.802z"/>
					</g>
				</g>
				<g>
					<path style="fill:#84524D;" d="M1577.021,1494.63c-50.194-27.281-75.93-62.842-89.463-85.431
						c-61.812-103.177-30.054-238.979,13.75-311.003c-36.576,40.757-69.356,121.176-65.051,199.637
						c5.542,101.019,38.516,140.029,36.022,164.483c-1.919,18.815-36.683,36.312-36.023,40.465
						C1436.933,1507.028,1466.886,1507.378,1577.021,1494.63z"/>
					<path style="fill:#84524D;" d="M1391.96,1063.478c5.85,11.683,15.913,28.426,32.465,44.548
						c19.382,18.879,39.174,28.639,51.738,33.627c-0.854,5.29-1.708,10.58-2.562,15.87c-11.562-5.168-30.562-15.505-48.469-35.266
						C1404.913,1099.943,1395.932,1076.476,1391.96,1063.478z"/>
				</g>
			</g>
			<g>
				<path style="fill:#2D353A;" d="M1783.177,1380.659l4.153,44.497l3.835,64.72c0.209,3.528-0.443,7.055-1.905,10.312
					l-12.016,26.754l24.325,8.343l23.138-43.384l-10.086-118.473L1783.177,1380.659z"/>
				<path style="fill:#2D353A;" d="M1945.144,1395.677c21.814,15.925,42.041,30.51,56.955,40.603l6.567,64.406
					c0.739,7.245-1.355,14.495-5.891,20.401l-3.643,4.743l4.153,5.006l20.172,5.562l16.019-27.81l2.373-95.112l-74.16-45.609
					L1945.144,1395.677z"/>
				<path style="fill:#40484C;" d="M1850.218,1209.903l33.224,6.674l77.127,13.905l44.496,11.68l37.377,13.349
					c16.132,15.029,27.699,31.723,33.224,50.615c3.782,12.265,2.287,37.002-4.153,73.42l-90.772,16.131
					c-28.805,4.544-58.556,5.107-88.993,2.781l-46.276-1.669l-53.989,5.006c-11.66-18.139-13.851-49.391-14.832-82.319
					l-30.851-36.71l39.706-46.899L1850.218,1209.903z"/>
				<path style="fill:#40484C;" d="M1783.177,1368.979l7.119,31.982l5.339,18.633l5.34,16.13l3.56,66.189l-12.459,31.704
					l13.646,8.343l34.41,2.781c6.761-1.907,7.61-3.34,13.052-7.231l-7.713-21.136c0.896-5.113,2.193-32.083,3.56-62.851
					l7.119-30.592l21.358-51.171L1783.177,1368.979z"/>
				<path style="fill:#40484C;" d="M1977.492,1390.273l3.249,5.404c12.234,18.962,31.526,38.651,41.319,48.144
					c3.964,3.842,6.235,8.938,6.392,14.28l1.531,52.154c-6.569,7.908-10.756,14.142-11.272,17.798l1.186,10.568l22.545,8.343
					l33.817-2.225l10.679-7.231l-7.713-18.355l-2.907-6.813c-2.786-6.53-4.313-13.472-4.509-20.503l-2.077-74.47
					c5.611-38.606,6.822-79.026,5.933-105.68L1977.492,1390.273z"/>
				<path style="fill:#40484C;" d="M1691.811,1187.098l29.516-14.322c6.201-5.814,14.288-9.53,22.989-10.563l5.6-0.665l7.138,1.095
					c4.58-2.423,9.802-4.177,15.855-5.066c7.754-1.139,15.7,0.098,22.723,3.384l14.241,8.897l24.326,22.247l-49.539,46.721
					l-1.483,15.573v12.237l-13.052,8.899l-8.306,8.899l-0.688,2.179c-1.724,5.206-19.231,6.949-40.04,2.411
					c-6.397-2.096-10.986-5.199-13.262-9.596c-6.941,3.397-5.119,4.49-10.982,5.464c-8.443-0.524-7.973-4.151-6.979-6.888
					c1.116-3.357,2.668-5.225,9.656-8.031c9.396-5.347,13.408-10.722,10.68-16.13c-2.765-6.554-9.072-5.769-14.832-6.119
					l-38.563-11.124c-19.052-6.846-30.856-13.697-41.141-24.373c-6.97-7.059-7.828-17.309-8.302-26.714
					c-0.822-16.303,6.491-32.183,20.089-42.375c10.061-7.541,20.753-12.938,32.144-15.959c3.764-0.998,7.104-3.087,9.375-6.073
					c8.155-10.724,12.672-20.925,10.153-30.115c-1.13-4.122-4.393-7.441-8.588-9.069c-12.845-4.985-24.69-5.294-35.682-1.618
					c-4.096-1.346-6.684-3.117-8.329-5.154c-3.825-4.735-1.308-11.603,4.624-13.688c11.809-4.151,26.077-5.126,42.861-2.85
					c8.257,2.403,16.226,7.134,23.732,15.573c13.231,20.917,14.878,38.516,2.777,54.012c-6.245,6.199-16.187,17.041-29.475,28.864
					c-6.331,4.685-10.123,8.993-12.086,13.029c-2.188,4.499,0.777,9.748,5.904,10.908L1691.811,1187.098z"/>
				<path style="fill:#2D353A;" d="M1737.497,1197.814c7.712,10.145,16.231,11.788,25.516,5.428
					C1755.206,1196.006,1746.7,1194.208,1737.497,1197.814z"/>
				<path style="fill:#40484C;" d="M1817.301,1176.652l26.984-11.485c10.641-2.125,22.301,12.805,32.69,15.62
					c3.234,6.498,4.457,17.03,5.266,28.391l-1.316,26.538c-1.695,8.989-9.491,20.111-19.75,32.094
					c-14.959,10.218-32.957,15.121-54.64,13.578l-16.458-46.906l-15.8-5.555C1804.467,1216.189,1813.936,1198.225,1817.301,1176.652
					z"/>
				<path style="fill:#40484C;" d="M2089.896,1444.341l-9.771,14.075c-1.429,2.058-2.305,4.41-2.553,6.855
					c-0.516,5.076,1.244,10.124,4.857,13.934l3.827,4.036c1.19,5.429,0.826,12.46-0.594,20.579c2.681-0.722,5.66-8.589,8.9-22.804
					l-2.374-12.237c3.884-6.302,4.771-12.427,2.374-18.355L2089.896,1444.341z"/>
				<path style="fill:#363E44;" d="M2089.896,1456.19c-0.002,0-0.002,0-0.004,0c-1.218-0.002-2.205-0.991-2.203-2.21
					c0.145-89.105-3.17-139.68-21.068-151.762c-1.011-0.681-1.276-2.053-0.595-3.064c0.681-1.01,2.052-1.278,3.065-0.594
					c19.643,13.259,23.163,62.746,23.012,155.426C2092.101,1455.204,2091.114,1456.19,2089.896,1456.19z"/>
				<path style="fill:#2D353A;" d="M1807.415,1232.547c10.111,21.49,20.136,50.3,30.489,51.313
					c6.549,3.42,26.816-28.583,41.509-49.591c-6.979,28.583-19.91,63.281-29.02,67.499c-8.255,4.402-14.661,3.74-20.571,1.722
					C1817.51,1289.741,1811.767,1262.567,1807.415,1232.547z"/>
				<path style="fill:#2D353A;" d="M1691.338,1275.25l8.081-8.609c6.001-6.546,6.746-13.089,3.673-19.63
					c7.15-1.154,13.066,0.37,17.632,4.821l-3.673,9.643C1705.242,1271.225,1695.326,1277.962,1691.338,1275.25z"/>
				<path style="fill:#FFFFFF;" d="M1629.772,1231.049c25.835,4.732,51.643,9.698,79.724-3.622
					c7.693,6.605,8.967,13.503,3.252,20.722C1678.031,1259.22,1652.982,1247.317,1629.772,1231.049z"/>
			</g>
		</g>
		<g>
			<g>
				<polygon style="fill:#363E44;" points="557.778,2165 658.574,1783.568 1030.828,1791.087 1115.891,2164.611 870.914,2164.805 
					843.763,2062.975 821.84,2164.611 				"/>
			</g>
			<g>
				<path style="fill:#BC8271;" d="M659.956,1427.614c-75.163-18.006-286.527-78.207-312.929,11.829
					c-21.839,74.474,186.744,123.787,260.223,146.506C624.819,1533.171,642.388,1480.392,659.956,1427.614z"/>
				<path style="fill:#BC8271;" d="M1024.531,1446.025c75.163-18.006,309.928-96.618,336.33-6.582
					c21.839,74.474-224.78,139.298-298.259,162.017C1045.033,1548.681,1042.099,1498.803,1024.531,1446.025z"/>
				<path style="fill:#EFBC73;" d="M534.82,1380.527c0,0,103.315-84.206,298.58-96.488
					c198.534-12.487,337.214,116.127,337.214,116.127l-19.638,200.066l-68.309-0.304l15.681,368.962l-505.76-19.95l24.265-353.624
					l-59.939-8.585L534.82,1380.527z"/>
				<g>
					<path style="fill:#BC8271;" d="M712.141,1092.152c-1.991-35.179,16.805-56.116,9.607-61.516
						c-5.008-3.757-14.321,2.146-27.388,20.121c8.358-14.797,18.814-35.364,10.622-39.96c-9.742-4.8-24.867,17.918-33.345,32.108
						c10.262-17.176,10.546-29.024,5.34-30.448c-8.194-2.241-19.299,9.032-31.97,32.807c4.451-17.238,2.592-23.959-2.316-24.097
						c-8.962-0.25-19.108,18.937-25.394,37.356c-7.076,20.735-5.491,38.972-4.096,50.83
						c-49.414,53.586-245.794,240.484-269.184,284.518c-17.98,33.849-7.7,73.802,25.764,92.489
						c29.882,16.688,53.783,23.302,52.172,24.236c63.634-27.066,68.902-38.357,93.505-61.162
						c8.874-8.224,18.566-30.94,11.565-35.875c3.894-4.588,21.832-25.726,21.832-25.726
						c83.705-109.275,145.187-185.198,163.245-209.382c1.892-2.533,5.25-6.989,7.882-13.745
						C729.735,1139.671,713.896,1123.155,712.141,1092.152z"/>
					<path style="fill:#BC8271;" d="M707.118,1120.965c22.927-26.265,36.763-30.88,40.81-27.114
						c6.805,6.333-3.59,36.77-32.262,79.378C711.978,1158.882,710.805,1135.313,707.118,1120.965z"/>
					<path style="fill:#363E44;" d="M502.732,1446.295c-0.469,0-0.941-0.149-1.342-0.455c-0.967-0.741-1.151-2.127-0.409-3.095
						c5.79-7.555,21.69-27.282,37.066-46.358c14.107-17.502,28.695-35.6,34.604-43.228c0.747-0.966,2.136-1.139,3.096-0.393
						c0.964,0.746,1.14,2.133,0.393,3.096c-5.935,7.662-19.886,24.971-34.657,43.296c-15.36,19.056-31.243,38.76-36.999,46.273
						C504.05,1445.998,503.394,1446.295,502.732,1446.295z"/>
					<g>
						<path style="fill:#363E44;" d="M655.135,1149.075c-0.516,0-1.034-0.18-1.453-0.546c-0.917-0.803-1.01-2.197-0.207-3.114
							c3.88-4.431,8.801-11.886,10.218-22.233c2.007-14.645-4.441-25.938-7.306-30.114c-0.69-1.005-0.433-2.38,0.571-3.069
							c1.009-0.69,2.382-0.431,3.069,0.571c3.155,4.599,10.255,17.041,8.039,33.211c-1.565,11.431-6.993,19.655-11.27,24.541
							C656.36,1148.819,655.749,1149.075,655.135,1149.075z"/>
						<path style="fill:#363E44;" d="M721.971,1149.254c-1.177,0-2.154-0.928-2.204-2.114c-0.309-7.346-2.418-14.642-4.65-22.366
							c-1.078-3.725-2.191-7.577-3.189-11.69c-0.288-1.184,0.44-2.377,1.624-2.665c1.179-0.295,2.377,0.439,2.665,1.624
							c0.976,4.021,2.076,7.826,3.139,11.506c2.309,7.986,4.489,15.53,4.82,23.406c0.052,1.218-0.895,2.247-2.112,2.298
							C722.033,1149.252,722.002,1149.254,721.971,1149.254z"/>
						<path style="fill:#363E44;" d="M688.353,1084.118c-1.202,0-2.185-0.964-2.206-2.172c-0.071-4.377,0.264-8.781,0.997-13.087
							c1.063-6.245,2.965-12.341,5.653-18.118c0.515-1.106,1.832-1.582,2.932-1.07c1.106,0.515,1.584,1.828,1.07,2.932
							c-2.523,5.421-4.307,11.14-5.304,16.997c-0.688,4.039-1.002,8.168-0.934,12.275c0.019,1.218-0.953,2.222-2.172,2.243
							C688.378,1084.118,688.366,1084.118,688.353,1084.118z"/>
						<path style="fill:#363E44;" d="M667.04,1074.089c-1.201,0-2.186-0.965-2.206-2.172c-0.07-4.385,0.265-8.788,0.997-13.087
							c1.063-6.245,2.965-12.341,5.653-18.118c0.514-1.106,1.834-1.583,2.932-1.07c1.106,0.515,1.584,1.828,1.07,2.932
							c-2.523,5.421-4.307,11.14-5.304,16.996c-0.686,4.032-1.001,8.162-0.934,12.275c0.019,1.219-0.953,2.223-2.171,2.243
							C667.065,1074.089,667.052,1074.089,667.04,1074.089z"/>
						<path style="fill:#363E44;" d="M638.593,1077.524c-1.202,0-2.185-0.964-2.206-2.172c-0.071-4.376,0.264-8.779,0.996-13.086
							c1.064-6.245,2.966-12.34,5.653-18.12c0.515-1.106,1.831-1.582,2.932-1.07c1.105,0.514,1.584,1.827,1.07,2.932
							c-2.523,5.423-4.307,11.141-5.304,16.998c-0.686,4.038-1.001,8.168-0.933,12.274c0.019,1.218-0.953,2.222-2.172,2.243
							C638.618,1077.524,638.606,1077.524,638.593,1077.524z"/>
					</g>
				</g>
				<g>
					<path style="fill:#BC8271;" d="M1010.765,1087.15c4.41-34.959-12.898-57.141-5.345-62.031
						c5.255-3.403,14.139,3.127,25.937,21.96c-7.319-15.338-16.332-36.576-7.844-40.597c10.049-4.117,23.573,19.589,31.053,34.33
						c-9.054-17.842-8.531-30.047-3.239-31.11c8.328-1.672,18.571,12.433,29.623,34.567c-2.993-16.6-0.925-23.716,3.981-23.515
						c8.958,0.368,17.858,20.398,22.86,39.207c5.63,21.173,2.529,39.441,0.684,51.18c46.111,57.007,228.544,256.844,248.844,302.385
						c15.604,35.007,14.703,62.739-25.801,86.059c-29.661,17.078-45.465,19.784-43.922,20.826
						c-61.618-31.387-85.388-28.292-108.362-52.739c-8.286-8.816-13.256-42.682-5.932-47.122c-3.569-4.845-20.01-27.17-20.01-27.17
						c-75.976-114.783-132.081-194.763-148.43-220.133c-1.713-2.657-4.756-7.334-6.917-14.256
						C989.939,1133.344,1006.878,1117.959,1010.765,1087.15z"/>
					<path style="fill:#BC8271;" d="M1013.79,1116.241c-21.063-27.783-34.548-33.341-38.845-29.862
						c-7.225,5.849,1.048,36.93,26.716,81.413C1006.329,1153.733,1009.124,1130.301,1013.79,1116.241z"/>
					<path style="fill:#363E44;" d="M1209.884,1463.172c-0.587,0-1.172-0.233-1.607-0.694
						c-13.186-14.009-59.344-71.249-71.111-88.826c-0.678-1.012-0.406-2.384,0.607-3.062c1.011-0.678,2.384-0.406,3.062,0.607
						c11.382,16.999,57.897,74.699,70.656,88.254c0.836,0.888,0.793,2.285-0.094,3.12
						C1210.97,1462.974,1210.427,1463.172,1209.884,1463.172z"/>
					<g>
						<path style="fill:#363E44;" d="M1063.866,1147.871c-0.667,0-1.324-0.3-1.759-0.871c-3.93-5.17-8.777-13.748-9.551-25.26
							c-1.096-16.289,6.844-28.208,10.309-32.578c0.761-0.954,2.147-1.112,3.101-0.358c0.955,0.758,1.114,2.146,0.358,3.101
							c-3.147,3.967-10.357,14.786-9.365,29.539c0.7,10.42,5.097,18.195,8.661,22.883c0.738,0.971,0.55,2.356-0.42,3.093
							C1064.8,1147.724,1064.331,1147.871,1063.866,1147.871z"/>
						<path style="fill:#363E44;" d="M997.177,1143.444c-0.082,0-0.165-0.004-0.248-0.014c-1.211-0.135-2.084-1.226-1.948-2.438
							c0.873-7.833,3.567-15.207,6.419-23.012c1.316-3.6,2.676-7.323,3.927-11.269c0.367-1.163,1.614-1.807,2.771-1.436
							c1.162,0.368,1.805,1.609,1.436,2.771c-1.279,4.037-2.656,7.805-3.988,11.45c-2.759,7.549-5.365,14.68-6.179,21.986
							C999.242,1142.61,998.286,1143.444,997.177,1143.444z"/>
						<path style="fill:#363E44;" d="M1035.203,1080.779c-0.063,0-0.126-0.002-0.191-0.007c-1.214-0.104-2.114-1.174-2.011-2.388
							c0.351-4.091,0.322-8.231-0.086-12.308c-0.591-5.914-1.976-11.742-4.119-17.323c-0.437-1.138,0.131-2.415,1.269-2.852
							c1.135-0.442,2.414,0.13,2.851,1.27c2.284,5.949,3.761,12.161,4.39,18.465c0.434,4.347,0.466,8.763,0.093,13.125
							C1037.301,1079.911,1036.337,1080.779,1035.203,1080.779z"/>
						<path style="fill:#363E44;" d="M1057.155,1072.243c-0.063,0-0.126-0.002-0.191-0.008c-1.214-0.104-2.114-1.173-2.011-2.388
							c0.351-4.089,0.322-8.23-0.085-12.309c-0.592-5.913-1.977-11.742-4.12-17.322c-0.436-1.138,0.131-2.415,1.27-2.851
							c1.133-0.44,2.414,0.13,2.851,1.269c2.284,5.948,3.761,12.16,4.391,18.465c0.434,4.349,0.464,8.764,0.092,13.125
							C1059.254,1071.375,1058.289,1072.243,1057.155,1072.243z"/>
						<path style="fill:#363E44;" d="M1085.299,1077.63c-0.063,0-0.126-0.002-0.191-0.008c-1.214-0.104-2.114-1.173-2.011-2.388
							c0.351-4.09,0.322-8.231-0.085-12.31c-0.592-5.914-1.978-11.742-4.12-17.322c-0.436-1.138,0.131-2.415,1.269-2.851
							c1.136-0.44,2.414,0.132,2.852,1.27c2.283,5.948,3.761,12.16,4.391,18.465c0.434,4.349,0.464,8.766,0.092,13.126
							C1087.397,1076.762,1086.433,1077.63,1085.299,1077.63z"/>
					</g>
				</g>
			</g>
			<g>
				<path style="fill:#BC8271;" d="M808.043,1116.95c8.359,13.44,5.863,30.103-5.576,37.217
					c-11.438,7.114-27.488,1.986-35.847-11.454c-8.359-13.44-5.863-30.103,5.575-37.217
					C783.635,1098.381,799.684,1103.51,808.043,1116.95z"/>
				<path style="fill:#BC8271;" d="M924.485,1120.498c-9.162,12.906-7.685,29.69,3.299,37.488
					c10.984,7.798,27.316,3.656,36.478-9.25c9.162-12.906,7.685-29.69-3.299-37.488
					C949.979,1103.45,933.647,1107.591,924.485,1120.498z"/>
				<path style="fill:#BC8271;" d="M865.888,1342.212c-28.292-0.084-51.157-23.745-51.071-52.846l-1.467-149.512l102.456,0.306
					l1.467,149.512C917.186,1318.774,894.18,1342.297,865.888,1342.212z"/>
				<path style="fill:#363E44;" d="M867.719,1256.602c-82.223-1.832-74.13-138.711-74.13-138.711l145.402,6.91
					C938.991,1124.801,947.446,1258.379,867.719,1256.602z"/>
				
					<ellipse transform="matrix(0.4348 -0.9005 0.9005 0.4348 -506.869 1353.6089)" style="fill:#363E44;" cx="824.915" cy="1080.6" rx="52.205" ry="52.205"/>
				<path style="fill:#BC8271;" d="M936.622,1135.163c-1.391,45.657-28.936,19.339-67.794,18.155
					c-38.857-1.184-74.312,23.215-72.921-22.443s33.001-69.222,71.858-68.038C906.623,1064.021,938.013,1089.506,936.622,1135.163z"
					/>
				<path style="fill:#363E44;" d="M934.81,1159.448c-0.189,0-0.38-0.025-0.571-0.075c-1.178-0.316-1.877-1.525-1.563-2.703
					c1.852-6.928,2.904-14.148,3.127-21.461c0.198-6.523-0.266-13.027-1.383-19.336c-0.212-1.2,0.589-2.346,1.789-2.558
					c1.203-0.208,2.345,0.589,2.558,1.789c1.168,6.606,1.655,13.416,1.447,20.239c-0.234,7.652-1.335,15.212-3.274,22.468
					C936.677,1158.796,935.785,1159.448,934.81,1159.448z"/>
				<path style="fill:#363E44;" d="M796.3,1154.715c-1.031,0-1.954-0.726-2.163-1.777c-1.439-7.24-2.053-14.724-1.823-22.242
					c0.212-6.958,1.143-13.853,2.77-20.495c0.29-1.185,1.481-1.913,2.668-1.619c1.184,0.29,1.908,1.484,1.619,2.668
					c-1.552,6.342-2.442,12.929-2.645,19.578c-0.219,7.187,0.366,14.336,1.741,21.249c0.237,1.195-0.539,2.357-1.735,2.595
					C796.588,1154.701,796.442,1154.715,796.3,1154.715z"/>
				<path style="fill:#363E44;" d="M869.365,1157.327c-0.723,0-1.432-0.355-1.855-1.008c-0.663-1.023-0.371-2.389,0.653-3.052
					c1.234-0.8,2.734-2.025,2.864-3.32c0.073-0.722-0.294-1.372-1.005-2.553c-0.816-1.354-1.83-3.039-2.134-5.49
					c-0.272-2.194,0.1-4.457,1.104-6.728c0.492-1.115,1.793-1.619,2.912-1.125c1.114,0.494,1.619,1.797,1.125,2.912
					c-0.677,1.529-0.933,3.009-0.761,4.399c0.189,1.52,0.842,2.605,1.534,3.753c0.862,1.433,1.841,3.057,1.617,5.276
					c-0.248,2.44-1.882,4.653-4.858,6.58C870.192,1157.213,869.776,1157.327,869.365,1157.327z"/>
				<path style="fill:#FFFFFF;" d="M864.538,1180.972c-0.606,0-1.209-0.248-1.645-0.734c-1.461-1.63-4.635-4.502-9.48-5.423
					c-3.197-0.604-5.963-0.135-7.721,0.369c-1.172,0.338-2.394-0.344-2.729-1.515c-0.335-1.172,0.344-2.393,1.515-2.729
					c3.18-0.91,6.556-1.067,9.757-0.461c6.123,1.163,10.111,4.767,11.944,6.813c0.814,0.908,0.737,2.303-0.17,3.117
					C865.589,1180.786,865.062,1180.972,864.538,1180.972z"/>
				<path style="fill:#363E44;" d="M788.603,1106.275c0,0,37.011,8.603,79.593-34.02c0,0,64.463,100.231,129.236-9.023
					c0,0-33.68,11.698-49.273-12.396c-24.811-38.337-89.038-72.902-120.828-8.449L788.603,1106.275z"/>
				<g>
					<g>
						<path style="fill:#FFFFFF;" d="M913.5,1121.812l-0.169-0.019c-0.1,0.349-0.351,0.791-0.722,0.768
							c-0.462,0.515-0.692,1.363-1.009,1.917c-0.571,0.997-2.08,0.048-1.51-0.947c0.384-0.67-2.074,0.559-3.146,0.933
							c-3.419,1.195-6.88,2.236-10.38,3.169c-1.632,0.435-3.267,0.883-4.913,1.261c-1.32,0.303-5.686,1.532-6.022,1.318
							c-4.532,3.899-7.084,7.638-7.084,7.638s6.236,3.002,14.392,3.689c0.026-0.109,0.056-0.216,0.078-0.327
							c0.224-1.09,19.203-4.953,19.686-4.101c8.131-4.833,12.944-11.86,12.944-11.86S920.527,1122.787,913.5,1121.812z"/>
						<path style="fill:#363E44;" d="M899.666,1122.474c-5.711,1.528-10.476,4.678-14.028,7.732
							c0.319,3.544,1.894,6.986,4.725,9.578c0.729,0.667,1.509,1.244,2.322,1.739c3.676,0.332,7.754,0.201,11.837-0.892
							c2.953-0.79,5.638-2.024,8.048-3.444c3.159-4.632,3.378-10.597,0.76-15.394
							C909.206,1121.237,904.442,1121.196,899.666,1122.474z"/>
					</g>
					<g>
						<path style="fill:#FFFFFF;" d="M821.1,1120.232l0.17-0.009c0.078,0.355,0.301,0.811,0.673,0.812
							c0.429,0.542,0.606,1.403,0.889,1.975c0.508,1.03,2.073,0.177,1.566-0.852c-0.342-0.692,2.035,0.687,3.082,1.126
							c3.339,1.404,6.729,2.656,10.164,3.804c1.602,0.535,3.206,1.083,4.826,1.563c1.298,0.384,5.58,1.881,5.929,1.688
							c4.283,4.172,6.598,8.061,6.598,8.061s-6.409,2.611-14.592,2.793c-0.02-0.11-0.042-0.219-0.058-0.331
							c-0.156-1.102-18.86-6.13-19.395-5.31c-7.818-5.327-12.187-12.637-12.187-12.637S814.026,1120.77,821.1,1120.232z"/>
						<path style="fill:#363E44;" d="M834.866,1121.746c5.605,1.878,10.167,5.316,13.524,8.584
							c-0.538,3.517-2.323,6.855-5.309,9.268c-0.769,0.621-1.582,1.149-2.426,1.592c-3.689,0.104-7.752-0.279-11.759-1.621
							c-2.898-0.971-5.501-2.368-7.819-3.935c-2.867-4.818-2.717-10.785,0.192-15.412
							C825.421,1119.923,830.179,1120.177,834.866,1121.746z"/>
					</g>
				</g>
			</g>
		</g>
		<g>
			<polygon style="fill:#FFFFFF;" points="641.783,457.909 910.376,923.126 373.19,923.126 			"/>
			<path style="fill:#363E44;" d="M915.132,926.545H702.076c-1.219,0-2.207-0.988-2.207-2.207c0-1.219,0.988-2.207,2.207-2.207
				H911.31L646.539,463.537l-26.107,45.219c-0.611,1.054-1.959,1.416-3.015,0.808c-1.056-0.61-1.417-1.959-0.808-3.015
				l28.019-48.529c0.789-1.366,3.035-1.366,3.823,0l268.593,465.216c0.393,0.683,0.393,1.524,0,2.207
				C916.65,926.125,915.921,926.545,915.132,926.545z"/>
			<path style="fill:#363E44;" d="M500.206,926.545H377.946c-0.789,0-1.517-0.42-1.912-1.104c-0.393-0.683-0.393-1.524,0-2.207
				L450.88,793.6c0.61-1.055,1.955-1.419,3.015-0.808c1.056,0.61,1.417,1.959,0.808,3.015l-72.935,126.324h118.437
				c1.219,0,2.207,0.988,2.207,2.207C502.413,925.557,501.424,926.545,500.206,926.545z"/>
			<g>
				<g>
					<polygon style="fill:#D87355;" points="588.483,803.775 661.201,803.775 677.428,547.414 572.256,547.414 					"/>
					<rect x="588.483" y="839.112" style="fill:#D87355;" width="72.718" height="62.027"/>
				</g>
				<g>
					<path style="fill:#363E44;" d="M644.974,805.982h-72.718c-1.165,0-2.129-0.905-2.203-2.068l-16.227-256.362
						c-0.039-0.608,0.177-1.205,0.594-1.65c0.417-0.444,0.999-0.696,1.609-0.696h105.173c0.61,0,1.192,0.252,1.609,0.696
						c0.417,0.445,0.633,1.042,0.594,1.65l-16.228,256.362C647.103,805.077,646.138,805.982,644.974,805.982z M574.327,801.568
						h68.576l15.948-251.948H558.38L574.327,801.568z"/>
					<path style="fill:#363E44;" d="M644.974,903.346h-72.718c-1.219,0-2.207-0.988-2.207-2.207v-62.028
						c0-1.219,0.988-2.207,2.207-2.207h72.718c1.219,0,2.207,0.988,2.207,2.207v62.028
						C647.18,902.358,646.192,903.346,644.974,903.346z M574.463,898.932h68.304v-57.614h-68.304V898.932z"/>
				</g>
			</g>
		</g>
		<g>
			<path style="opacity:0.55;fill:#FFFFFF;" d="M1492.575,745.961c-12.891-33.068-147.557,15.153-171.919-106.289
				c-9.783-48.764-53.195-32.363-84.353-44.047c-12.8-4.8-66.263-43.134-51.652-78.11c0.884-2.116,113.463-0.49,113.188,0.995
				c-2.259,12.238,4.445,34.083,25.705,44.4c29.094,14.118,41.226-21.146,77.721,2.521c30.751,19.943,26.284,35.107,55.097,58.242
				c34.567,27.756,67.989-19.092,126.802-12.758c90.087,9.701,88.568,134.552,180.483,135.306
				c126.708,1.039,148.513,128.732,94.512,144.364c-78.933,22.849-92.856-56.987-147.48-60.238
				C1645.248,826.451,1546.322,883.834,1492.575,745.961z"/>
			<g>
				<g>
					<path style="fill:#363E44;" d="M1098.12,519.721H842.344c-0.746,0-1.442-0.377-1.849-1.002
						c-0.407-0.625-0.471-1.413-0.17-2.096c17.273-39.157,56.089-64.459,98.886-64.459h357.654l55.621-55.622
						c0.414-0.414,0.974-0.647,1.561-0.647h34.745c0.746,0,1.442,0.377,1.849,1.002c0.407,0.625,0.472,1.413,0.17,2.096
						l-24.426,55.37c-0.491,1.115-1.793,1.62-2.91,1.128c-1.116-0.492-1.621-1.795-1.129-2.911l23.059-52.272h-30.445
						l-55.621,55.622c-0.414,0.414-0.974,0.647-1.56,0.647H939.211c-39.91,0-76.209,22.94-93.419,58.729h252.328
						c1.219,0,2.207,0.988,2.207,2.207C1100.327,518.733,1099.339,519.721,1098.12,519.721z"/>
					<path style="fill:#363E44;" d="M1336.115,519.721h-151.464c-1.219,0-2.207-0.988-2.207-2.207c0-1.219,0.988-2.207,2.207-2.207
						h150.027l18.947-42.953c0.491-1.114,1.795-1.617,2.91-1.128c1.116,0.492,1.621,1.795,1.129,2.911l-19.529,44.268
						C1337.781,519.205,1336.99,519.721,1336.115,519.721z"/>
				</g>
				<path style="fill:#363E44;" d="M1298.689,444.914c-0.418,0-0.839-0.117-1.214-0.365l-46.595-30.746
					c-0.814-0.537-1.179-1.543-0.899-2.476c0.28-0.933,1.14-1.572,2.114-1.572h23.355c0.36,0,0.713,0.087,1.03,0.255l39.573,20.879
					c1.078,0.568,1.491,1.903,0.922,2.982c-0.569,1.077-1.899,1.492-2.983,0.921l-39.09-20.624h-15.455l40.459,26.697
					c1.017,0.671,1.297,2.04,0.627,3.057C1300.109,444.566,1299.406,444.914,1298.689,444.914z"/>
				<path style="fill:#363E44;" d="M1432.596,497.081h-21.245c-0.308,0-0.612-0.065-0.892-0.189l-82.523-36.477
					c-1.114-0.492-1.619-1.795-1.127-2.911c0.496-1.113,1.791-1.62,2.912-1.126l82.097,36.288h11.867l-62.178-32.807
					c-1.078-0.568-1.491-1.903-0.922-2.982c0.571-1.077,1.901-1.491,2.983-0.921l70.059,36.965c0.897,0.473,1.356,1.497,1.112,2.482
					C1434.495,496.389,1433.611,497.081,1432.596,497.081z"/>
				<path style="fill:#363E44;" d="M1075.596,448.72c-0.435,0-0.875-0.128-1.26-0.397l-115.787-80.658h-39.357l78.408,77.275
					c0.867,0.856,0.878,2.253,0.023,3.122c-0.856,0.867-2.253,0.877-3.122,0.023l-82.242-81.055
					c-0.637-0.629-0.832-1.581-0.492-2.41c0.34-0.829,1.147-1.37,2.042-1.37h45.433c0.452,0,0.891,0.138,1.262,0.397l116.356,81.055
					c1,0.696,1.246,2.072,0.549,3.072C1076.98,448.39,1076.293,448.72,1075.596,448.72z"/>
				<path style="fill:#363E44;" d="M1254.415,573.285h-45.432c-0.365,0-0.725-0.091-1.046-0.264l-155.735-83.889
					c-1.073-0.578-1.474-1.916-0.897-2.989c0.578-1.073,1.915-1.473,2.989-0.897l155.245,83.625h37.847l-123.033-85.706
					c-1-0.696-1.246-2.072-0.548-3.072c0.697-0.999,2.072-1.247,3.072-0.548l128.799,89.723c0.791,0.551,1.134,1.552,0.845,2.471
					C1256.232,572.658,1255.379,573.285,1254.415,573.285z"/>
			</g>
		</g>
	</g>
</g>
</svg>
